<?xml version="1.0" encoding="utf-8"?>
<!-- Generator: Adobe Illustrator 22.1.0, SVG Export Plug-In . SVG Version: 6.00 Build 0)  -->
<svg version="1.1" id="Слой_1" xmlns="http://www.w3.org/2000/svg" xmlns:xlink="http://www.w3.org/1999/xlink" x="0px" y="0px"
	 viewBox="0 0 322 128" style="enable-background:new 0 0 322 128;" xml:space="preserve">
<style type="text/css">
	.st0{fill:none;stroke:#FFFFFF;}
	.st1{fill:#FFFFFF;}
</style>
<g>
	<path class="st0" d="M217.3,82.4V48.2v-0.9h5.7l13.5,10.4l11.9-9.5h5.9v2.6l-18.6,14.8l-12.7-10v26.8H217.3z"/>
	<path class="st0" d="M254.3,82.4V58l-5.9,4.6v19.8H254.3z"/>
	<path class="st1" d="M102.4,47.8V72c0,3.4-1.1,6.1-3.2,8.2c-2.1,2.1-4.9,3.3-8.5,3.6l-1.2,0c-3.9,0-7-1-9.3-3.1
		c-2.3-2.1-3.5-5-3.5-8.7V47.8h4.6v24.1c0,2.6,0.7,4.6,2.1,6c1.4,1.4,3.4,2.1,6.1,2.1c2.7,0,4.7-0.7,6.1-2.1c1.4-1.4,2.1-3.4,2.1-6
		V47.8H102.4z M129.9,67h-15.4v12.6h17.9v3.8h-22.6V47.8h22.3v3.9h-17.7v11.4h15.4V67z M148.7,67.5c-4-1.2-6.9-2.6-8.8-4.2
		c-1.8-1.7-2.7-3.8-2.7-6.2c0-2.8,1.1-5.1,3.3-6.9c2.2-1.8,5.2-2.8,8.7-2.8c2.4,0,4.6,0.5,6.5,1.4c1.9,0.9,3.4,2.2,4.4,3.9
		c1.1,1.7,1.6,3.5,1.6,5.4h-4.7c0-2.1-0.7-3.8-2.1-5.1c-1.4-1.2-3.3-1.9-5.8-1.9c-2.3,0-4.1,0.5-5.4,1.5c-1.3,1-1.9,2.4-1.9,4.2
		c0,1.4,0.6,2.7,1.8,3.7c1.2,1,3.3,1.9,6.3,2.7c3,0.8,5.3,1.7,6.9,2.8c1.7,1,2.9,2.2,3.7,3.5c0.8,1.3,1.2,2.9,1.2,4.7
		c0,2.9-1.1,5.2-3.4,6.9c-2.2,1.7-5.2,2.6-9,2.6c-2.4,0-4.7-0.5-6.8-1.4c-2.1-0.9-3.8-2.2-4.9-3.9c-1.1-1.6-1.7-3.5-1.7-5.5h4.7
		c0,2.1,0.8,3.8,2.4,5.1c1.6,1.2,3.7,1.9,6.4,1.9c2.5,0,4.4-0.5,5.7-1.5c1.3-1,2-2.4,2-4.1c0-1.7-0.6-3.1-1.8-4
		C154.1,69.4,151.9,68.5,148.7,67.5z M178.4,67.5c-4-1.2-6.9-2.6-8.8-4.2c-1.8-1.7-2.7-3.8-2.7-6.2c0-2.8,1.1-5.1,3.3-6.9
		c2.2-1.8,5.2-2.8,8.7-2.8c2.4,0,4.6,0.5,6.5,1.4c1.9,0.9,3.4,2.2,4.4,3.9c1.1,1.7,1.6,3.5,1.6,5.4h-4.7c0-2.1-0.7-3.8-2-5.1
		c-1.4-1.2-3.3-1.9-5.8-1.9c-2.3,0-4.1,0.5-5.4,1.5c-1.3,1-1.9,2.4-1.9,4.2c0,1.4,0.6,2.7,1.8,3.7c1.2,1,3.3,1.9,6.3,2.7
		c3,0.8,5.3,1.7,6.9,2.8c1.7,1,2.9,2.2,3.7,3.5c0.8,1.3,1.2,2.9,1.2,4.7c0,2.9-1.1,5.2-3.4,6.9c-2.2,1.7-5.2,2.6-9,2.6
		c-2.4,0-4.7-0.5-6.8-1.4c-2.1-0.9-3.8-2.2-4.9-3.9c-1.1-1.6-1.7-3.5-1.7-5.5h4.7c0,2.1,0.8,3.8,2.4,5.1c1.6,1.2,3.7,1.9,6.4,1.9
		c2.5,0,4.4-0.5,5.7-1.5c1.3-1,2-2.4,2-4.1c0-1.7-0.6-3.1-1.8-4C183.8,69.4,181.6,68.5,178.4,67.5z M279.7,67h-15.4v12.6h17.9v3.8
		h-22.6V47.8H282v3.9h-17.7v11.4h15.4V67z"/>
	<path class="st0" d="M70.3,67.4l0.9-1.7L72,63H54.9l4,4.4h4.8"/>
	<path class="st0" d="M70.3,67.4l-2.1,3.2l-5.6,5.3l-7.3,7l-6.7-7l-5.2-5.3l-2.8-5.1l-0.7-5.1l0.7-5.1l2.8-5.3l3.8-3.7l5.2-2.2h6.6
		l7,3.1l4.4,5.3l2,7.9h-5.7l-0.7-5.1l-3.3-3.7l-3.7-2.4h-6.6l-3.8,2.4l-2.7,3.7l-0.9,4.3l0.9,4.6l2.7,4.1l3.8,3.9l3,3.7l3.7-3.7
		l5-4.8"/>
</g>
</svg>
